<?xml version="1.0" standalone="no"?>
<!DOCTYPE svg PUBLIC "-//W3C//DTD SVG 20010904//EN"
 "http://www.w3.org/TR/2001/REC-SVG-20010904/DTD/svg10.dtd">
<svg version="1.0" xmlns="http://www.w3.org/2000/svg"
 width="300.000000pt" height="299.000000pt" viewBox="0 0 300.000000 299.000000"
 preserveAspectRatio="xMidYMid meet">
<metadata>
Created by potrace 1.10, written by Peter Selinger 2001-2011
</metadata>
<g transform="translate(0.000000,299.000000) scale(0.100000,-0.100000)"
fill="#000000" stroke="none">
<path d="M1602 2529 c-13 -5 -27 -7 -32 -4 -18 11 -191 -58 -260 -105 -14 -9
-45 -30 -70 -46 -49 -32 -56 -36 -150 -119 -79 -69 -140 -134 -177 -189 -16
-23 -36 -49 -45 -60 -28 -31 -132 -253 -143 -306 -2 -8 -10 -44 -18 -80 -11
-44 -15 -106 -13 -195 2 -124 4 -133 35 -198 45 -94 136 -189 223 -233 133
-67 311 -90 460 -59 84 18 213 75 276 123 l43 33 32 -20 c71 -43 105 -104 105
-186 0 -113 -65 -196 -185 -236 -140 -46 -289 -48 -342 -3 -24 20 -31 22 -46
10 -18 -13 -17 -15 5 -52 59 -98 134 -132 294 -134 189 -2 330 51 398 149 55
79 78 148 78 235 0 90 -18 143 -72 215 -55 73 -65 81 -156 128 -2 1 14 25 36
55 52 69 182 298 182 321 0 28 -45 22 -59 -9 -18 -41 -133 -183 -204 -253 -69
-68 -68 -67 -152 -45 -5 1 -44 11 -85 22 -79 21 -197 83 -207 108 -9 25 29 84
107 164 80 82 175 151 293 212 207 108 440 121 521 29 23 -26 48 -27 69 -3 23
25 22 26 -20 73 -76 84 -204 118 -330 87 -192 -46 -266 -75 -443 -174 -152
-85 -289 -205 -329 -288 -27 -58 -28 -134 -2 -184 30 -57 147 -122 265 -146
33 -7 61 -17 63 -23 4 -11 -90 -47 -152 -58 -64 -12 -225 -5 -289 11 -89 23
-147 57 -203 118 -123 134 -124 337 -3 617 81 188 263 381 486 516 103 63 178
87 250 81 30 -3 60 -10 66 -16 20 -20 -13 -154 -52 -212 -23 -34 -71 -152 -68
-167 4 -22 32 -38 52 -30 20 8 84 106 131 202 45 90 56 191 28 245 -20 39 -96
84 -127 76 -11 -3 -25 -1 -30 3 -6 5 -22 5 -34 0z m104 -49 c55 -18 69 -43 68
-119 -1 -43 -9 -83 -23 -115 -43 -97 -131 -225 -131 -189 0 4 25 59 55 123 33
70 57 137 61 168 6 48 4 54 -25 83 -31 31 -33 31 -109 27 -93 -5 -151 -30
-295 -125 -170 -113 -357 -317 -427 -468 -73 -157 -108 -318 -97 -444 10 -107
40 -173 115 -250 75 -78 210 -121 376 -121 266 0 393 103 189 154 -81 20 -187
77 -210 112 -9 14 -18 47 -21 74 -11 119 99 233 383 394 102 58 291 129 380
142 126 20 246 -8 292 -66 23 -29 13 -28 -47 2 -57 30 -66 31 -160 29 -119 -2
-185 -18 -303 -73 -127 -58 -239 -137 -338 -236 -102 -104 -133 -164 -105
-207 37 -56 181 -117 356 -151 43 -9 64 4 147 86 44 44 83 80 87 80 3 0 -19
-38 -49 -85 -30 -47 -55 -91 -55 -98 0 -18 31 -50 72 -75 39 -25 100 -101 127
-163 33 -70 29 -175 -9 -253 -59 -123 -119 -169 -264 -201 -94 -21 -251 -16
-312 10 -42 17 -86 54 -79 65 3 4 25 3 51 -3 59 -14 192 2 287 34 80 27 133
69 173 136 25 41 29 58 29 123 0 60 -5 85 -24 123 -26 50 -97 107 -133 107
-11 0 -52 -19 -91 -43 -139 -83 -259 -117 -402 -112 -270 9 -464 149 -516 373
-14 60 -3 263 17 334 90 317 319 591 636 762 125 68 232 86 324 56z"/>
</g>
</svg>
